<svg width="1044.2" height="179.5" version="1.1" viewBox="0 0 276.28 47.492" xmlns="http://www.w3.org/2000/svg">
 <g transform="translate(349.39 -377.55)">
  <g transform="matrix(5.0519 0 0 5.0519 -1277.6 525.28)" fill="#56b364" strokeWidth=".052374" ariaLabel="Good">
   <path d="m217.43-23.693v1.7425q0 0.34727-0.0682 0.5581-0.0682 0.20464-0.25425 0.37207-0.17983 0.16743-0.46509 0.32246-0.82475 0.44648-1.5875 0.65112-0.76274 0.20464-1.6619 0.20464-1.048 0-1.91-0.32246-0.86197-0.32246-1.4697-0.93638-0.60772-0.61392-0.93638-1.4883-0.32246-0.87436-0.32246-1.9534 0-1.0604 0.31626-1.941 0.31626-0.88057 0.93018-1.4945 0.61391-0.61392 1.4945-0.93638 0.88057-0.32866 1.9968-0.32866 0.91777 0 1.6247 0.24805 0.70694 0.24184 1.1472 0.61392 0.44028 0.37207 0.66353 0.78755 0.22324 0.41548 0.22324 0.73794 0 0.34727-0.26045 0.59531-0.25425 0.24185-0.61392 0.24185-0.19844 0-0.38447-0.09302-0.17983-0.09302-0.30386-0.26045-0.34106-0.5333-0.57671-0.80615-0.23564-0.27285-0.63872-0.45889-0.39687-0.18604-1.017-0.18604-0.63872 0-1.141 0.22324-0.50229 0.21704-0.86196 0.63872-0.35346 0.41548-0.5457 1.0232-0.18604 0.60772-0.18604 1.3457 0 1.5999 0.73174 2.4619 0.73794 0.86196 2.0526 0.86196 0.63872 0 1.1968-0.16743 0.5643-0.16743 1.141-0.47749v-1.4759h-1.4263q-0.5147 0-0.78135-0.15503-0.26044-0.15503-0.26044-0.5271 0-0.30386 0.21704-0.5023 0.22324-0.19844 0.60151-0.19844h2.0898q0.38448 0 0.65113 0.06821t0.42788 0.30386q0.16743 0.23564 0.16743 0.70693z"/>
   <path d="m224.68-23.284q0 0.75654-0.23565 1.3953-0.23564 0.63872-0.68213 1.0976-0.44648 0.45889-1.0666 0.70693-0.62012 0.24184-1.3953 0.24184-0.76895 0-1.3829-0.24805-0.61392-0.24805-1.0666-0.70693-0.44648-0.46509-0.68212-1.0914-0.22945-0.63252-0.22945-1.3953 0-0.76894 0.23565-1.4077 0.23564-0.63872 0.67592-1.0914 0.44029-0.45269 1.0666-0.69453 0.62631-0.24805 1.3829-0.24805 0.76894 0 1.3953 0.24805 0.62632 0.24805 1.0728 0.70693 0.44649 0.45889 0.67593 1.0914 0.23565 0.63252 0.23565 1.3953zm-1.6991 0q0-1.0356-0.45888-1.6123-0.45269-0.57671-1.2216-0.57671-0.4961 0-0.87437 0.26045-0.37827 0.25425-0.58291 0.75654-0.20464 0.5023-0.20464 1.172 0 0.66352 0.19844 1.1596 0.20464 0.49609 0.57671 0.76274 0.37827 0.26045 0.88677 0.26045 0.76894 0 1.2216-0.57671 0.45888-0.58291 0.45888-1.6061z"/>
   <path d="m231.6-23.284q0 0.75654-0.23564 1.3953-0.23565 0.63872-0.68213 1.0976-0.44649 0.45889-1.0666 0.70693-0.62012 0.24184-1.3953 0.24184-0.76894 0-1.3829-0.24805-0.61391-0.24805-1.0666-0.70693-0.44648-0.46509-0.68213-1.0914-0.22944-0.63252-0.22944-1.3953 0-0.76894 0.23564-1.4077 0.23565-0.63872 0.67593-1.0914 0.44028-0.45269 1.0666-0.69453 0.62632-0.24805 1.3829-0.24805 0.76895 0 1.3953 0.24805 0.62632 0.24805 1.0728 0.70693t0.67593 1.0914q0.23564 0.63252 0.23564 1.3953zm-1.6991 0q0-1.0356-0.45889-1.6123-0.45268-0.57671-1.2216-0.57671-0.49609 0-0.87436 0.26045-0.37827 0.25425-0.58291 0.75654-0.20464 0.5023-0.20464 1.172 0 0.66352 0.19844 1.1596 0.20464 0.49609 0.57671 0.76274 0.37827 0.26045 0.88676 0.26045 0.76895 0 1.2216-0.57671 0.45889-0.58291 0.45889-1.6061z"/>
   <path d="m236.83-20.809v-0.16743q-0.34107 0.39067-0.67593 0.63872-0.32866 0.24184-0.71934 0.36587-0.38447 0.13022-0.84336 0.13022-0.60771 0-1.1286-0.25425-0.5147-0.26045-0.89297-0.73794t-0.57671-1.1224q-0.19223-0.64492-0.19223-1.3953 0-1.5875 0.77514-2.4743 0.77515-0.88677 2.0402-0.88677 0.73174 0 1.234 0.25425 0.5023 0.24805 0.97979 0.76894v-2.4991q0-0.5209 0.20463-0.78755 0.21084-0.26665 0.59532-0.26665 0.38447 0 0.58911 0.24805 0.21084 0.24184 0.21084 0.71934v7.4662q0 0.48369-0.22324 0.72554-0.22325 0.24184-0.57671 0.24184-0.34727 0-0.57671-0.24805-0.22324-0.25425-0.22324-0.71934zm-3.33-2.4867q0 0.68833 0.21084 1.172 0.21704 0.48369 0.58911 0.73174 0.37207 0.24185 0.81235 0.24185 0.44649 0 0.81235-0.22944 0.37207-0.23564 0.58912-0.71314 0.22324-0.48369 0.22324-1.203 0-0.67593-0.22324-1.1596-0.21705-0.48989-0.59532-0.74414-0.37207-0.26045-0.81855-0.26045-0.46509 0-0.83096 0.26665-0.36587 0.26045-0.57051 0.75654-0.19843 0.48989-0.19843 1.141z"/>
  </g>
  <g transform="matrix(5.0519 0 0 5.0519 -1277.6 525.28)" fill="#12acf1" strokeWidth=".026292" ariaLabel="Do">
   <path d="m195.44-20.899h1.778q1.0287 0 1.778-0.3048 0.762-0.3175 1.2573-0.8255 0.508-0.5207 0.7493-1.1684 0.2413-0.6604 0.2413-1.3589t-0.2413-1.3462q-0.2413-0.6604-0.7493-1.1684-0.4953-0.5207-1.2573-0.8255-0.7493-0.3175-1.778-0.3175h-1.778zm-0.9144-8.1534h2.9845q0.8382 0 1.6764 0.2794 0.8509 0.2794 1.524 0.8509 0.6858 0.5588 1.1049 1.4097 0.4191 0.8382 0.4191 1.9558 0 1.1303-0.4191 1.9685t-1.1049 1.4097q-0.6731 0.5588-1.524 0.8382-0.8382 0.2794-1.6764 0.2794h-2.9845z" color="#000000" style="-inkscape-stroke:none"/>
   <path d="m194.51-29.066v9.0195h2.998c0.56026 0 1.1196-0.09457 1.6797-0.28125 0.56876-0.18676 1.0773-0.46626 1.5273-0.83984 0.45862-0.38218 0.82923-0.85377 1.1094-1.4141 0.28046-0.56091 0.41992-1.2195 0.41992-1.9746 0-0.74671-0.13948-1.4-0.41992-1.9609-0.28015-0.56879-0.65066-1.0403-1.1094-1.4141-0.44968-0.38152-0.95908-0.66692-1.5273-0.85352-0.56005-0.18668-1.1194-0.28125-1.6797-0.28125zm0.0254 0.02734h2.9726c0.55734 0 1.1143 0.09345 1.6719 0.2793 0.56572 0.18576 1.0721 0.46774 1.5195 0.84766 0.45568 0.3713 0.82291 0.84051 1.1016 1.4062 0.27836 0.55671 0.41797 1.2058 0.41797 1.9492 0 0.75191-0.13963 1.4062-0.41797 1.9629-0.27865 0.5573-0.64578 1.0264-1.1016 1.4062-0.44747 0.37148-0.95376 0.64821-1.5195 0.83398-0.55755 0.18585-1.1145 0.2793-1.6719 0.2793h-2.9726zm0.88867 0.8125v7.3398h1.791c0.6871 0 1.2817-0.1007 1.7832-0.30469 0.50936-0.21224 0.93012-0.48803 1.2617-0.82812 0.33984-0.34834 0.59043-0.74028 0.75195-1.1738 0.16138-0.44167 0.24219-0.8961 0.24219-1.3633 0-0.46652-0.0812-0.91692-0.24219-1.3496v-2e-3c-0.16154-0.4414-0.41241-0.83233-0.75195-1.1719-0.33164-0.34864-0.75224-0.62433-1.2617-0.82812-0.50153-0.21251-1.096-0.31836-1.7832-0.31836zm0.0254 0.02539h1.7656c0.68445 0 1.2759 0.10558 1.7734 0.31641 0.50652 0.20261 0.92319 0.47664 1.252 0.82227 0.33739 0.33739 0.58588 0.72557 0.7461 1.1641 0.16032 0.43035 0.24219 0.87764 0.24219 1.3418 0 0.46415-0.0818 0.91661-0.24219 1.3555-0.16024 0.42944-0.40901 0.81659-0.7461 1.1621-0.3288 0.33723-0.74531 0.61117-1.252 0.82226-0.49759 0.20241-1.0889 0.30469-1.7734 0.30469h-1.7656z" color="#000000" style="-inkscape-stroke:none"/>
   <path d="m207.78-23.032q0-0.4953-0.1651-0.9271-0.1524-0.4318-0.4445-0.7493t-0.7112-0.4953q-0.4064-0.1905-0.9271-0.1905t-0.9398 0.1905q-0.4064 0.1778-0.6985 0.4953-0.2794 0.3175-0.4445 0.7493-0.1524 0.4318-0.1524 0.9271t0.1524 0.9271q0.1651 0.4318 0.4445 0.7493 0.2921 0.3175 0.6985 0.508 0.4191 0.1778 0.9398 0.1778t0.9271-0.1778q0.4191-0.1905 0.7112-0.508t0.4445-0.7493q0.1651-0.4318 0.1651-0.9271zm0.9144 0q0 0.6731-0.2413 1.2446-0.2286 0.5715-0.6477 0.9906t-1.0033 0.6604q-0.5715 0.2286-1.27 0.2286-0.6858 0-1.27-0.2286-0.5715-0.2413-0.9906-0.6604t-0.6604-0.9906q-0.2286-0.5715-0.2286-1.2446t0.2286-1.2446q0.2413-0.5715 0.6604-0.9906t0.9906-0.6477q0.5842-0.2413 1.27-0.2413 0.6985 0 1.27 0.2413 0.5842 0.2286 1.0033 0.6477t0.6477 0.9906q0.2413 0.5715 0.2413 1.2446z" color="#000000" style="-inkscape-stroke:none"/>
   <path d="m205.53-26.17c-0.45874 0-0.88229 0.08063-1.2734 0.24219-0.38254 0.15302-0.71542 0.36972-0.99609 0.65039-0.28062 0.28062-0.50063 0.61364-0.66211 0.99609-0.15306 0.38265-0.23047 0.79783-0.23047 1.248s0.0774 0.86735 0.23047 1.25c0.16148 0.38245 0.38149 0.71547 0.66211 0.99609 0.28062 0.28062 0.61364 0.50063 0.99609 0.66211 0.39109 0.15304 0.81478 0.23047 1.2734 0.23047 0.4671 0 0.89268-0.07738 1.2754-0.23047 0.39092-0.16147 0.72715-0.38144 1.0078-0.66211 0.28067-0.28067 0.49738-0.61355 0.65039-0.99609 0.16159-0.3827 0.24219-0.7997 0.24219-1.25s-0.0806-0.86534-0.24219-1.248c-0.15301-0.38254-0.36972-0.71543-0.65039-0.99609-0.28071-0.28071-0.6168-0.49739-1.0078-0.65039-0.38277-0.16161-0.80821-0.24219-1.2754-0.24219zm0 0.02734c0.46415 0 0.88639 0.08011 1.2656 0.24023 0.38793 0.1518 0.72192 0.36645 1 0.64453 0.27814 0.27813 0.49275 0.60687 0.64454 0.98633 0.16014 0.3793 0.24023 0.79112 0.24023 1.2383s-0.0801 0.86094-0.24023 1.2402c-0.15179 0.37946-0.3664 0.7082-0.64454 0.98633-0.27813 0.27813-0.61199 0.49794-1 0.6582-0.37928 0.15171-0.80139 0.22656-1.2656 0.22656-0.45574 0-0.87583-0.0748-1.2637-0.22656-0.37955-0.16025-0.70815-0.38002-0.98633-0.6582s-0.49795-0.60678-0.6582-0.98633c-0.15174-0.37935-0.22657-0.79299-0.22657-1.2402s0.0748-0.85893 0.22657-1.2383c0.16025-0.37955 0.38002-0.70815 0.6582-0.98633 0.27813-0.27813 0.60687-0.49275 0.98633-0.64453 0.38779-0.16017 0.80801-0.24023 1.2637-0.24023zm0 0.73438c-0.34874 0-0.66405 0.06356-0.94531 0.19141-0.27186 0.11918-0.50557 0.28544-0.70117 0.49805v2e-3c-0.18738 0.21292-0.3367 0.46278-0.44727 0.75195-0.10212 0.28935-0.1543 0.60009-0.1543 0.93164s0.0522 0.64229 0.1543 0.93164c0.11057 0.28917 0.25989 0.54098 0.44727 0.75391 0.1959 0.21294 0.42879 0.38404 0.70117 0.51172h2e-3c0.2812 0.1193 0.59473 0.17969 0.94336 0.17969s0.66077-0.06033 0.93359-0.17969c0.28086-0.12766 0.51888-0.29871 0.71485-0.51172 0.19597-0.21301 0.34512-0.46451 0.44726-0.75391 0.11067-0.28943 0.16602-0.59998 0.16602-0.93164s-0.0554-0.64221-0.16602-0.93164c-0.10214-0.2894-0.25129-0.54089-0.44726-0.75391-0.19603-0.21307-0.43387-0.37884-0.71485-0.49805-0.27288-0.12792-0.58485-0.19141-0.93359-0.19141zm0 0.02734c0.34553 0 0.6529 0.06337 0.92187 0.18945 0.27783 0.11786 0.5136 0.28193 0.70704 0.49219 0.19349 0.21032 0.34034 0.45781 0.4414 0.74414h2e-3c0.10946 0.2863 0.16406 0.59314 0.16406 0.92188s-0.0546 0.63753-0.16406 0.92383h-2e-3c-0.10106 0.28633-0.24791 0.53382-0.4414 0.74414-0.1935 0.21032-0.42909 0.37952-0.70704 0.50586-0.26904 0.11771-0.57623 0.17578-0.92187 0.17578s-0.656-0.05801-0.93359-0.17578c-0.26949-0.12632-0.4998-0.29546-0.69336-0.50586-0.18517-0.21041-0.3338-0.45758-0.44336-0.74414-0.10108-0.28638-0.15039-0.59498-0.15039-0.92383 0-0.32885 0.0493-0.6355 0.15039-0.92188 0.10935-0.286 0.2587-0.53399 0.44336-0.74414 0.1935-0.21033 0.424-0.37434 0.69336-0.49219 0.27753-0.12615 0.58806-0.18945 0.93359-0.18945z" color="#000000" style="-inkscape-stroke:none"/>
  </g>
  <g transform="matrix(5.0519 0 0 5.0519 -1277.6 525.28)" fill="#12acf1" strokeWidth=".026292" ariaLabel="To">
   <path d="m187.67-20.061h-0.9144v-8.1534h-3.0099v-0.8382h6.9342v0.8382h-3.0099z" color="#000000" style="-inkscape-stroke:none"/>
   <path d="m183.74-29.066v0.86523h3.0098v8.1543h0.94141v-8.1543h3.0098v-0.86523zm0.0254 0.02734h6.9082v0.8125h-3.0098v8.1523h-0.88672v-8.1523h-3.0117z" color="#000000" style="-inkscape-stroke:none"/>
   <path d="m193.34-23.032q0-0.4953-0.1651-0.9271-0.1524-0.4318-0.4445-0.7493t-0.7112-0.4953q-0.4064-0.1905-0.9271-0.1905t-0.9398 0.1905q-0.4064 0.1778-0.6985 0.4953-0.2794 0.3175-0.4445 0.7493-0.1524 0.4318-0.1524 0.9271t0.1524 0.9271q0.1651 0.4318 0.4445 0.7493 0.2921 0.3175 0.6985 0.508 0.4191 0.1778 0.9398 0.1778t0.9271-0.1778q0.4191-0.1905 0.7112-0.508t0.4445-0.7493q0.1651-0.4318 0.1651-0.9271zm0.9144 0q0 0.6731-0.2413 1.2446-0.2286 0.5715-0.6477 0.9906t-1.0033 0.6604q-0.5715 0.2286-1.27 0.2286-0.6858 0-1.27-0.2286-0.5715-0.2413-0.9906-0.6604t-0.6604-0.9906q-0.2286-0.5715-0.2286-1.2446t0.2286-1.2446q0.2413-0.5715 0.6604-0.9906t0.9906-0.6477q0.5842-0.2413 1.27-0.2413 0.6985 0 1.27 0.2413 0.5842 0.2286 1.0033 0.6477t0.6477 0.9906q0.2413 0.5715 0.2413 1.2446z" color="#000000" style="-inkscape-stroke:none"/>
   <path d="m191.09-26.17c-0.45874 0-0.88425 0.08063-1.2754 0.24219-0.38254 0.15302-0.71543 0.36972-0.99609 0.65039-0.28062 0.28062-0.50063 0.61364-0.66211 0.99609-0.15306 0.38265-0.23047 0.79783-0.23047 1.248s0.0774 0.86735 0.23047 1.25c0.16148 0.38245 0.38149 0.71547 0.66211 0.99609 0.28062 0.28062 0.61364 0.50063 0.99609 0.66211 0.39109 0.15304 0.81673 0.23047 1.2754 0.23047 0.4671 0 0.89072-0.07738 1.2734-0.23047 0.39092-0.16147 0.72714-0.38144 1.0078-0.66211 0.28067-0.28067 0.49737-0.61355 0.65039-0.99609 0.16159-0.3827 0.24219-0.7997 0.24219-1.25s-0.0806-0.86534-0.24219-1.248c-0.15302-0.38254-0.36972-0.71543-0.65039-0.99609-0.28071-0.28071-0.6168-0.49739-1.0078-0.65039-0.38277-0.16161-0.80626-0.24219-1.2734-0.24219zm0 0.02734c0.46415 0 0.88444 0.08011 1.2637 0.24023 0.38792 0.1518 0.72192 0.36645 1 0.64453 0.27813 0.27813 0.49275 0.60687 0.64453 0.98633 0.16015 0.3793 0.24024 0.79112 0.24024 1.2383s-0.0801 0.86094-0.24024 1.2402c-0.15178 0.37946-0.3664 0.7082-0.64453 0.98633-0.27813 0.27813-0.61199 0.49794-1 0.6582-0.37928 0.15171-0.79944 0.22656-1.2637 0.22656-0.45574 0-0.87778-0.0748-1.2656-0.22656-0.37954-0.16025-0.70814-0.38002-0.98632-0.6582s-0.49795-0.60678-0.65821-0.98633c-0.15174-0.37935-0.22656-0.79299-0.22656-1.2402s0.0748-0.85893 0.22656-1.2383c0.16026-0.37955 0.38003-0.70815 0.65821-0.98633 0.27813-0.27813 0.60687-0.49275 0.98632-0.64453 0.38779-0.16017 0.80997-0.24023 1.2656-0.24023zm0 0.73438c-0.34874 0-0.66405 0.06356-0.94531 0.19141-0.27251 0.11922-0.50717 0.28504-0.70313 0.49805v2e-3c-0.18737 0.21292-0.3367 0.46278-0.44726 0.75195-0.10213 0.28935-0.1543 0.60009-0.1543 0.93164s0.0522 0.64229 0.1543 0.93164c0.11056 0.28917 0.25989 0.54098 0.44726 0.75391 0.19591 0.21294 0.43075 0.38404 0.70313 0.51172 0.2812 0.1193 0.59668 0.17969 0.94531 0.17969s0.65882-0.06033 0.93164-0.17969c0.28086-0.12766 0.51888-0.29871 0.71484-0.51172 0.19598-0.21301 0.34513-0.46451 0.44727-0.75391 0.11067-0.28943 0.16602-0.59998 0.16602-0.93164s-0.0554-0.64221-0.16602-0.93164c-0.10214-0.2894-0.25129-0.54089-0.44727-0.75391-0.19602-0.21307-0.43386-0.37884-0.71484-0.49805-0.27289-0.12792-0.5829-0.19141-0.93164-0.19141zm0 0.02734c0.34553 0 0.65094 0.06337 0.91992 0.18945h2e-3c0.27783 0.11786 0.51164 0.28193 0.70508 0.49219 0.1935 0.21032 0.3423 0.45781 0.44336 0.74414 0.10947 0.2863 0.16406 0.59314 0.16406 0.92188 1e-5 0.32874-0.0546 0.63753-0.16406 0.92383-0.10106 0.28633-0.24986 0.53382-0.44336 0.74414-0.1935 0.21032-0.42909 0.37952-0.70703 0.50586-0.26865 0.11723-0.57499 0.17578-0.91992 0.17578-0.34564 0-0.65795-0.05801-0.93555-0.17578-0.26948-0.12632-0.49979-0.29546-0.69336-0.50586-0.18516-0.21041-0.33379-0.45758-0.44336-0.74414h2e-3c-0.10108-0.28638-0.15235-0.59498-0.15235-0.92383 0-0.32885 0.0513-0.6355 0.15235-0.92188h-2e-3c0.10936-0.286 0.25871-0.53399 0.44336-0.74414 0.19351-0.21033 0.424-0.37434 0.69336-0.49219 0.27754-0.12615 0.59002-0.18945 0.93555-0.18945z" color="#000000" style="-inkscape-stroke:none"/>
  </g>
 </g>
</svg>
